<?xml version="1.0" encoding="UTF-8"?>
<svg xmlns="http://www.w3.org/2000/svg" viewBox="0 0 16 16">
  <g id="Livello_2" data-name="Livello 2">
    <circle cx="8" cy="8" r="8" style="fill: #030402;"/>
  </g>
  <g id="corpo">
    <g>
      <path d="M7.07,12.55c-.72,0-.84-.01-1.02-.05.01,0-1.46-.06-2.15-1.15-.24-.39-.31-.75-.34-1.08-.08-.81.06-1.92.41-3.32-.18-.41-.36-1.02-.25-1.75.14-.95.48-1.54.98-1.71.65-.21,1.63.3,2.19,1.51h2.2c.57-1.21,1.55-1.72,2.19-1.51.63.21.88,1.04.98,1.71.11.73-.07,1.34-.25,1.75.36,1.39.49,2.51.41,3.32-.08.77-.34,1.09-.45,1.23-.62.76-1.7.94-2.06,1.01h-.05s-.09.02-.13.02c-1.35.01-2.16.02-2.67.02h0ZM9.89,12.35h0,0ZM5.01,3.75c-.07,0-.14,0-.21.03-.38.12-.65.64-.77,1.46-.1.68.08,1.26.25,1.63l.02.05v.05c-.37,1.38-.51,2.48-.43,3.27.03.29.09.61.3.95.59.94,1.91,1.01,1.92,1.01.3.05.43.06,3.65.02.03,0,.05,0,.07-.01h.06c.88-.17,1.51-.46,1.86-.9.11-.14.33-.4.4-1.08.08-.78-.06-1.88-.42-3.27v-.05s0-.05,0-.05c.17-.37.35-.94.25-1.63-.12-.81-.4-1.34-.77-1.46-.52-.17-1.39.37-1.86,1.43l-.04.09h-2.6l-.04-.09c-.41-.94-1.13-1.47-1.65-1.47h0Z" style="fill: #fff;"/>
      <path d="M6.14,10.14s-.03,0-.05,0c-.28-.02-.52-.17-.7-.43-.17-.25-.24-.57-.22-.9.04-.7.53-1.24,1.09-1.2.55.04.97.63.92,1.33-.04.67-.5,1.2-1.04,1.2h0ZM6.2,7.9c-.37,0-.69.4-.73.92-.02.26.04.52.17.71.12.18.28.29.46.3.39.02.73-.39.76-.92.03-.53-.25-.98-.64-1.01h-.03Z" style="fill: #fff;"/>
      <path d="M9.86,10.14c-.53,0-.99-.53-1.04-1.2-.04-.7.37-1.3.92-1.33.56-.03,1.04.5,1.09,1.2.02.33-.06.65-.22.9-.17.26-.42.42-.7.43-.02,0-.03,0-.05,0h0ZM9.8,7.9h-.03c-.39.03-.67.48-.64,1.01.03.53.39.94.76.92.18-.01.34-.12.46-.3.13-.19.19-.44.17-.71-.03-.51-.36-.92-.73-.92h0Z" style="fill: #fff;"/>
    </g>
  </g>
</svg>