<?xml version="1.0" encoding="UTF-8"?>
<svg id="corpo" xmlns="http://www.w3.org/2000/svg" viewBox="0 0 100 100">
  <path d="M44.4,77.52c-4.36,0-5.07-.09-6.15-.29.07-.02-8.85-.39-12.99-6.98-1.46-2.34-1.86-4.51-2.06-6.52-.5-4.88.34-11.63,2.49-20.07-1.09-2.45-2.18-6.19-1.53-10.58.86-5.76,2.91-9.33,5.92-10.31,3.9-1.28,9.84,1.8,13.26,9.13h13.33c3.42-7.33,9.36-10.42,13.26-9.13,3.81,1.25,5.32,6.29,5.91,10.31.66,4.39-.43,8.13-1.53,10.58,2.15,8.43,2.99,15.18,2.49,20.07-.48,4.65-2.07,6.59-2.74,7.42-3.73,4.57-10.29,5.71-12.45,6.08l-.29.05c-.27.06-.52.1-.8.1-8.15.08-13.05.13-16.13.13ZM61.45,76.32h.02-.02ZM31.9,24.33c-.44,0-.86.06-1.25.19-2.27.74-3.92,3.88-4.66,8.82-.61,4.12.48,7.62,1.51,9.83l.14.3-.08.32c-2.16,8.37-3.01,15.01-2.52,19.74.18,1.78.53,3.71,1.79,5.73,3.55,5.66,11.55,6.13,11.63,6.13,1.79.32,2.62.34,22.05.14.16,0,.29-.04.45-.07l.34-.07c5.34-.93,9.13-2.73,11.27-5.35.69-.84,1.98-2.42,2.4-6.52.48-4.73-.37-11.37-2.52-19.74l-.08-.32.14-.3c1.03-2.21,2.13-5.71,1.51-9.83-.72-4.88-2.42-8.09-4.66-8.83-3.12-1.03-8.42,2.21-11.24,8.67l-.24.55h-15.73l-.24-.55c-2.48-5.67-6.84-8.86-9.99-8.86Z" style="fill: #fff;"/>
  <path d="M38.76,62.91c-.1,0-.21,0-.32-.01-1.67-.1-3.17-1.04-4.23-2.62-1-1.5-1.48-3.43-1.35-5.44.27-4.22,3.2-7.5,6.58-7.26,3.35.22,5.85,3.83,5.58,8.05-.27,4.08-3.04,7.27-6.26,7.27ZM39.12,49.42c-2.25,0-4.2,2.43-4.41,5.54-.1,1.6.27,3.12,1.05,4.29.73,1.09,1.72,1.73,2.81,1.8,2.33.14,4.4-2.33,4.61-5.54.21-3.2-1.52-5.93-3.85-6.09-.07,0-.13,0-.2,0Z" style="fill: #fff;"/>
  <path d="M61.24,62.91c-3.22,0-5.99-3.18-6.26-7.27-.27-4.22,2.23-7.83,5.58-8.05,3.38-.19,6.3,3.04,6.58,7.26.13,2-.35,3.93-1.35,5.44-1.05,1.58-2.55,2.51-4.22,2.62-.11,0-.21.01-.32.01ZM60.88,49.42c-.07,0-.14,0-.2,0-2.33.16-4.06,2.88-3.85,6.09.21,3.21,2.33,5.68,4.61,5.54,1.08-.07,2.08-.71,2.81-1.8.78-1.17,1.15-2.69,1.05-4.29-.2-3.11-2.16-5.54-4.41-5.54Z" style="fill: #fff;"/>
</svg>