<?xml version="1.0" encoding="UTF-8"?>
<svg xmlns="http://www.w3.org/2000/svg" viewBox="0 0 100 100">
  <g id="corpo">
    <g>
      <path d="M59.59,89.11c-1.67,0-3.27-.39-3.58-.47-1.79-.46-3.45-1.32-4.94-2.54-.3-.25-.34-.69-.09-.98.24-.29.69-.34.98-.1,1.33,1.1,2.81,1.86,4.4,2.27,2.36.61,5.23.66,5.89-.42.17-.28.14-.54.02-1.25-.04-.25-.08-.53-.12-.85-.25-2.18.07-4.5.96-6.89.13-.36.54-.54.9-.41.36.13.54.54.41.9-.81,2.19-1.11,4.29-.89,6.25.04.3.08.56.11.8.13.79.23,1.47-.21,2.19-.72,1.19-2.32,1.51-3.85,1.51Z" style="fill: #fff;"/>
      <path d="M33.04,88.67c-1.66,0-3.49-.28-5.33-1.08-5.09-2.21-8.82-7.8-8.88-13.3-.03-2.67.85-5.64,1.7-8.51.81-2.74,1.65-5.56,1.73-8.17.02-.68-.02-1.22-.28-1.78-.48-1.02-1.38-1.38-2.42-1.8-.98-.4-2.1-.84-2.9-1.93-1.57-2.13-1.07-5.41.25-7.56,2-3.27,5.81-3.66,6.94-3.69.1,0,.19,0,.28,0,6.36,0,10.33,7.24,11.07,8.72,1.43,2.84,2.06,6.12,1.82,9.47-.03.39-.38.72-.75.65-.38-.03-.67-.36-.65-.74.22-3.11-.36-6.13-1.68-8.75-.42-.83-4.26-8.18-10.06-7.94-.95.03-4.16.35-5.79,3.02-1.04,1.71-1.51,4.4-.32,6.01.57.77,1.41,1.1,2.3,1.46,1.15.46,2.45.98,3.16,2.51.4.86.44,1.67.41,2.42-.09,2.79-.95,5.7-1.79,8.52-.86,2.9-1.67,5.63-1.64,8.09.05,4.89,3.51,10.06,8.05,12.03,3.25,1.41,6.49,1.02,8.64.44.37-.1.76.12.85.49.1.37-.12.75-.49.86-1.16.31-2.62.58-4.23.58Z" style="fill: #fff;"/>
      <path d="M44.11,89.53c-4.34,0-8.58-2.84-10.61-5.77-.88-1.26-1.55-3.07-1.95-5.22-1.46-7.87.98-18.79,8.37-23.53,2-1.29,4.11-1.98,5.7-2.43-2.03,0-4.71-.17-6.68-1.63-3.79-2.83-4.17-9.92-1.17-21.67-.83-1.85-1.65-4.66-1.15-7.97.65-4.34,2.19-7.03,4.46-7.77,2.94-.95,7.41,1.36,9.99,6.88l5.76-.04c2.2-4.65,5.88-7.57,8.87-7,4.24.81,5.7,7.24,6.13,9.97.22,1.38.26,2.8.13,4.21,4.85,10.6,5.69,17.44,2.55,20.92-2.18,2.42-6.09,3.03-8.77,3.42,1.24.28,2.74.81,3.94,2.01.99.99,1.74,2.4,2.16,6.03.78,6.78-.18,15.76-1.57,19.88-.27.77-.6,1.74-.32,2.82.14.54.37.89.59,1.23.3.45.63.97.49,1.7-.33,1.62-2.56,2.26-3.7,2.36-1.15.12-2.39-.19-3.45-.84-.33-.2-.43-.63-.23-.96.2-.33.63-.43.96-.23.47.29,1.44.76,2.59.63,1.07-.1,2.35-.66,2.47-1.25.03-.15-.03-.27-.29-.66-.25-.37-.58-.88-.78-1.65-.38-1.49.05-2.74.31-3.49,1.38-4.11,2.31-12.8,1.55-19.4-.37-3.23-.97-4.42-1.76-5.21-1.32-1.32-3.18-1.65-4.42-1.86-1-.17-1.78-.31-1.83-1.1-.06-.97,1-1.12,2.92-1.4,2.48-.36,6.22-.9,8.11-2.99,2.7-3,1.74-9.59-2.87-19.58-.05-.11-.07-.24-.06-.36.14-1.36.11-2.72-.1-4.05-.62-3.92-2.26-8.29-5.02-8.82-2.44-.48-5.64,2.38-7.52,6.6-.11.25-.36.41-.63.41l-6.66.05s0,0,0,0c-.28,0-.53-.17-.64-.42-2.13-4.87-6.11-7.31-8.47-6.53-1.71.56-2.96,2.92-3.52,6.65-.46,3.11.37,5.74,1.14,7.41.07.14.08.31.04.47-2.87,11.13-2.67,18.01.59,20.44,1.85,1.38,4.72,1.36,6.61,1.36,1.58,0,2.62-.01,2.73.92.11.91-.84,1.17-2.41,1.62-1.55.43-3.89,1.09-6.03,2.46-6.87,4.42-9.12,14.69-7.75,22.11.36,1.96.96,3.58,1.72,4.68,2.37,3.43,8.47,6.88,13.27,4.2,2.65-1.49,4.97-4.95,4.27-8.69-.69-3.72-3.99-5.54-4.64-5.87-.34-.17-.48-.59-.31-.94.17-.35.59-.48.94-.31.76.38,4.57,2.5,5.38,6.86.82,4.39-1.87,8.43-4.96,10.16-1.45.81-2.97,1.16-4.49,1.16Z" style="fill: #fff;"/>
    </g>
  </g>
  <g id="occhi">
    <path d="M47.3,42.46c-.08,0-.17,0-.25,0-1.26-.08-2.39-.78-3.18-1.97-.76-1.13-1.12-2.59-1.02-4.09.1-1.51.65-2.9,1.54-3.93.94-1.08,2.11-1.62,3.42-1.54,1.26.08,2.39.78,3.18,1.97.75,1.13,1.12,2.59,1.02,4.09s-.65,2.9-1.54,3.93c-.88,1.01-2,1.55-3.16,1.55ZM47.56,32.3c-.76,0-1.51.38-2.12,1.07-.7.8-1.12,1.9-1.2,3.1-.08,1.2.2,2.35.79,3.23.55.82,1.3,1.3,2.11,1.36.82.04,1.62-.33,2.27-1.07.7-.8,1.12-1.9,1.2-3.1h0c.08-1.2-.2-2.35-.79-3.23-.55-.82-1.3-1.3-2.11-1.36-.05,0-.1,0-.15,0Z" style="fill: #fff;"/>
    <path d="M64.22,42.46c-1.17,0-2.28-.54-3.16-1.55-.9-1.03-1.44-2.42-1.54-3.93h0c-.1-1.51.26-2.96,1.02-4.09.79-1.19,1.92-1.89,3.18-1.97,1.3-.08,2.47.46,3.42,1.54.89,1.03,1.44,2.42,1.54,3.93.1,1.51-.26,2.96-1.02,4.09-.79,1.19-1.92,1.89-3.18,1.97-.08,0-.17,0-.25,0ZM63.96,32.3c-.05,0-.1,0-.15,0-.82.05-1.57.54-2.11,1.36-.59.88-.87,2.03-.79,3.23h0c.08,1.2.51,2.31,1.2,3.1.65.74,1.47,1.13,2.27,1.07.82-.05,1.57-.53,2.11-1.36.59-.88.87-2.03.79-3.23-.08-1.2-.51-2.31-1.2-3.1-.61-.7-1.36-1.07-2.12-1.07Z" style="fill: #fff;"/>
  </g>
</svg>