<?xml version="1.0" encoding="UTF-8"?>
<svg id="corpo" xmlns="http://www.w3.org/2000/svg" viewBox="0 0 32 32">
  <path d="M23.4,13.84l.05-.1c.34-.73.7-1.89.5-3.25-.24-1.61-.8-2.68-1.54-2.92-1.03-.34-2.79.73-3.72,2.87l-.08.18h-5.2l-.08-.18c-.82-1.88-2.26-2.93-3.3-2.93h0c-.15,0-.28.03-.41.07-.75.24-1.3,1.28-1.54,2.92-.2,1.36.16,2.52.5,3.25l.05.1-.03.11c-.71,2.77-1,4.97-.83,6.53.06.59.18,1.23.59,1.9,1.17,1.87,3.82,2.03,3.85,2.03.59.11.87.11,7.29.05.05,0,.1-.01.15-.02l.11-.02c1.77-.31,3.02-.9,3.73-1.77.23-.28.66-.8.79-2.16.16-1.56-.12-3.76-.83-6.53l-.03-.11ZM12.28,20.27h0s-.07,0-.11,0c-.55-.03-1.05-.34-1.4-.87-.33-.5-.49-1.13-.45-1.8.09-1.4,1.06-2.48,2.18-2.4,1.11.07,1.94,1.27,1.85,2.66-.09,1.35-1.01,2.41-2.07,2.41ZM21.22,19.41c-.35.52-.84.83-1.4.87-.04,0-.07,0-.11,0h0c-1.07,0-1.98-1.06-2.07-2.41-.09-1.4.74-2.59,1.85-2.66,1.12-.06,2.08,1.01,2.18,2.4.04.66-.12,1.3-.45,1.8Z" style="fill: #fff;"/>
  <path d="M24.55,10.4c-.2-1.33-.69-3-1.96-3.41-1.29-.43-3.26.6-4.39,3.02h-4.41c-1.13-2.42-3.1-3.44-4.39-3.02-1,.32-1.67,1.51-1.96,3.41-.22,1.45.15,2.69.51,3.5-.71,2.79-.99,5.03-.82,6.64.07.66.2,1.38.68,2.16,1.37,2.18,4.32,2.3,4.3,2.31.36.07.59.1,2.03.1h0c1.02,0,2.64-.02,5.34-.05.09,0,.18-.01.26-.03l.1-.02c.71-.12,2.88-.5,4.12-2.01.22-.27.75-.92.91-2.45.17-1.62-.11-3.85-.82-6.64.36-.81.72-2.05.51-3.5ZM19.79,24.71h0,0ZM24.26,20.47c-.14,1.36-.57,1.88-.79,2.16-.71.87-1.96,1.46-3.73,1.77l-.11.02c-.05,0-.1.02-.15.02-6.43.07-6.7.06-7.29-.05-.03,0-2.67-.16-3.85-2.03-.42-.67-.53-1.31-.59-1.9-.16-1.56.12-3.76.83-6.53l.03-.11-.05-.1c-.34-.73-.7-1.89-.5-3.25.24-1.63.79-2.67,1.54-2.92.13-.04.27-.06.41-.06h0c1.04,0,2.48,1.05,3.3,2.92l.08.18h5.2l.08-.18c.93-2.14,2.69-3.21,3.72-2.87.74.24,1.3,1.31,1.54,2.92.21,1.36-.16,2.52-.5,3.25l-.05.1.03.11c.71,2.77.99,4.97.83,6.53Z" style="fill: #131414;"/>
  <path d="M12.51,15.2c-1.12-.08-2.09,1.01-2.18,2.4-.04.66.12,1.3.45,1.8.35.52.85.83,1.4.87.04,0,.07,0,.11,0h0c1.07,0,1.98-1.06,2.07-2.41.09-1.4-.74-2.59-1.85-2.66ZM12.22,19.66c-.36-.02-.69-.23-.93-.6-.26-.39-.38-.89-.35-1.42.07-1.03.71-1.83,1.46-1.83h.07c.77.05,1.34.96,1.27,2.01-.07,1.06-.75,1.88-1.53,1.83Z" style="fill: #131414;"/>
  <path d="M19.49,15.2c-1.11.07-1.94,1.27-1.85,2.66.09,1.35,1.01,2.41,2.07,2.41h0s.07,0,.11,0c.55-.04,1.05-.34,1.4-.87.33-.5.49-1.14.45-1.8-.09-1.4-1.06-2.46-2.18-2.4ZM20.71,19.06c-.24.36-.57.57-.93.6-.75.05-1.46-.77-1.53-1.83-.07-1.06.5-1.96,1.27-2.01h.07c.74,0,1.39.8,1.46,1.83.03.53-.09,1.03-.35,1.42Z" style="fill: #131414;"/>
</svg>