<?xml version="1.0" encoding="UTF-8"?>
<svg xmlns="http://www.w3.org/2000/svg" viewBox="0 0 32 32">
  <g id="Livello_2" data-name="Livello 2">
    <rect x="0" width="32" height="32" rx="6.1" ry="6.1"/>
  </g>
  <g id="corpo">
    <g>
      <path d="M25.32,13.28l.06-.12c.43-.92.89-2.38.63-4.09-.3-2.03-1.01-3.37-1.94-3.68-1.3-.43-3.51.92-4.68,3.61l-.1.23h-6.55l-.1-.23c-1.03-2.36-2.85-3.69-4.16-3.69h0c-.18,0-.36.03-.52.09-.95.31-1.63,1.62-1.94,3.67-.25,1.72.2,3.17.63,4.09l.06.12-.03.13c-.9,3.49-1.25,6.25-1.05,8.22.07.74.22,1.54.75,2.39,1.48,2.36,4.81,2.55,4.84,2.55.75.13,1.09.14,9.18.06.07,0,.12-.02.19-.03l.14-.03c2.22-.39,3.8-1.14,4.69-2.23.29-.35.82-1.01,1-2.72.2-1.97-.15-4.73-1.05-8.22l-.03-.13ZM11.32,21.37h0s-.09,0-.13,0c-.7-.04-1.32-.43-1.76-1.09-.42-.62-.62-1.43-.56-2.27.11-1.76,1.33-3.12,2.74-3.02,1.39.09,2.44,1.59,2.32,3.35-.11,1.7-1.27,3.03-2.61,3.03ZM22.58,20.29c-.44.66-1.06,1.05-1.76,1.09-.05,0-.09,0-.13,0h0c-1.34,0-2.49-1.33-2.61-3.03-.11-1.76.93-3.26,2.32-3.35,1.41-.08,2.62,1.27,2.74,3.02.05.83-.15,1.64-.56,2.27Z" style="fill: #fff;"/>
      <path d="M26.76,8.96c-.25-1.67-.87-3.77-2.46-4.29-1.62-.54-4.1.75-5.52,3.8h-5.55c-1.42-3.05-3.9-4.34-5.52-3.8-1.25.41-2.11,1.89-2.47,4.29-.27,1.83.18,3.39.64,4.41-.9,3.51-1.25,6.33-1.04,8.36.08.84.25,1.74.86,2.72,1.72,2.74,5.44,2.9,5.41,2.91.45.08.75.12,2.56.12h0c1.28,0,3.32-.02,6.72-.06.12,0,.22-.02.33-.04l.12-.02c.9-.15,3.63-.63,5.18-2.53.28-.35.94-1.15,1.14-3.09.21-2.04-.14-4.85-1.04-8.36.46-1.02.91-2.58.64-4.41ZM20.77,26.96h0,0ZM26.4,21.63c-.17,1.71-.71,2.37-1,2.72-.89,1.09-2.47,1.84-4.69,2.23l-.14.03c-.07.01-.12.03-.19.03-8.09.08-8.44.07-9.18-.06-.03,0-3.36-.2-4.84-2.55-.52-.84-.67-1.64-.75-2.39-.2-1.97.15-4.73,1.05-8.22l.03-.13-.06-.12c-.43-.92-.88-2.38-.63-4.09.31-2.06,1-3.36,1.94-3.67.16-.05.34-.08.52-.08h0c1.31,0,3.13,1.32,4.16,3.68l.1.23h6.55l.1-.23c1.17-2.69,3.38-4.04,4.68-3.61.93.31,1.64,1.64,1.94,3.68.26,1.72-.2,3.17-.63,4.09l-.06.12.03.13c.9,3.49,1.25,6.25,1.05,8.22Z" style="fill: #fff;"/>
    </g>
  </g>
</svg>