<?xml version="1.0" encoding="UTF-8"?>
<svg xmlns="http://www.w3.org/2000/svg" viewBox="0 0 32 32">
  <g id="Livello_2" data-name="Livello 2">
    <rect x="0" width="32" height="32" rx="6.1" ry="6.1" style="fill: #fff;"/>
  </g>
  <g id="corpo">
    <path d="M26.12,13.36c.46-1.02.92-2.58.64-4.4-.25-1.68-.87-3.78-2.46-4.3-1.62-.54-4.1.75-5.52,3.8h-5.55c-1.43-3.05-3.9-4.33-5.53-3.8-1.25.41-2.1,1.9-2.46,4.3-.27,1.82.18,3.38.64,4.4-.9,3.52-1.25,6.33-1.04,8.36.08.84.25,1.74.86,2.71,1.71,2.74,5.41,2.9,5.41,2.91.45.08.74.12,2.55.12h.01c1.29,0,3.33-.02,6.71-.06.12,0,.22-.01.33-.04l.12-.02c.9-.15,3.64-.63,5.19-2.53.28-.35.94-1.15,1.14-3.09.21-2.04-.14-4.85-1.04-8.36ZM11.32,21.37h0s-.09.01-.13,0c-.7-.04-1.32-.43-1.77-1.09-.41-.62-.61-1.43-.56-2.26.11-1.76,1.33-3.13,2.74-3.03,1.4.1,2.44,1.6,2.33,3.36-.12,1.69-1.27,3.02-2.61,3.02ZM18.07,18.35c-.11-1.76.93-3.26,2.33-3.35,1.41-.08,2.62,1.26,2.74,3.02.05.83-.15,1.64-.56,2.27-.44.65-1.07,1.04-1.76,1.09h-.14c-.67,0-1.29-.33-1.76-.88-.47-.54-.79-1.3-.85-2.15Z"/>
  </g>
</svg>