<?xml version="1.0" encoding="UTF-8"?>
<svg xmlns="http://www.w3.org/2000/svg" viewBox="0 0 53.51 66.92">
  <g id="corpo">
    <path d="M49.73,12.79c.1-1.22.06-2.44-.13-3.62-.39-2.48-1.74-8.32-5.77-9.1-2.81-.53-6.09,1.91-8.14,6.03l-4.21.03C29.3,1.79,25.38-.78,22.3.23c-2.18.71-3.65,3.2-4.25,7.18-.43,2.88.24,5.35.95,7.02-2.6,10.28-2.17,16.53,1.28,19.11.96.72,2.09,1.1,3.2,1.3-.76.32-1.54.72-2.32,1.22-.57.37-1.11.77-1.61,1.21-.18-2.01-.72-3.93-1.6-5.67-.68-1.35-4.44-8.11-10.35-7.84-1.04.03-4.6.39-6.48,3.47-1.24,2.03-1.69,5.15-.18,7.19.79,1.07,1.88,1.51,2.76,1.86.93.37,1.46.61,1.76,1.25.18.38.2.75.19,1.26-.07,2.17-.78,4.57-1.47,6.9-.74,2.52-1.52,5.12-1.49,7.51.05,4.96,3.43,10.02,8.02,12.01,1.67.72,3.33.98,4.83.98s2.76-.24,3.8-.52c.15-.04.28-.1.4-.19,1.66.9,3.52,1.43,5.36,1.43,1.43,0,2.85-.33,4.15-1.06.71-.4,1.41-.93,2.03-1.58,1.2.88,2.52,1.5,3.92,1.86.45.12,1.79.43,3.22.43s3.07-.34,3.84-1.58c.72.36,1.72.67,2.9.56,1.22-.12,3.37-.79,3.72-2.52.18-.88-.23-1.5-.51-1.92-.18-.27-.34-.51-.43-.88-.19-.75.04-1.45.26-2.09,1.22-3.62,2.07-11.48,1.39-17.41-.33-2.86-.9-4.42-2.04-5.56-.46-.46-.96-.82-1.47-1.09,2.01-.42,4.21-1.15,5.66-2.76,2.86-3.18,2.2-9.25-2.04-18.55ZM11.69,63.01c-3.71-1.61-6.53-5.83-6.58-9.83-.02-2.03.66-4.35,1.39-6.8.73-2.47,1.49-5.02,1.56-7.51.02-.72-.01-1.5-.41-2.36-.71-1.53-2.01-2.05-3.05-2.47-.71-.29-1.33-.53-1.72-1.06-.84-1.13-.51-3.18.3-4.51,1.25-2.05,3.76-2.29,4.5-2.32,4.57-.09,7.77,5.83,8.11,6.52,1.08,2.15,1.56,4.63,1.39,7.19-3.5,4.82-4.52,11.64-3.51,17.1.36,1.94.97,3.58,1.78,4.73.49.7,1.07,1.37,1.73,1.97-1.6.23-3.56.18-5.51-.66ZM49.98,29.73c-1.48,1.65-4.58,2.1-6.63,2.39-1.74.25-3.12.45-3.03,1.84.07,1.15,1.23,1.35,2.08,1.5,1.05.18,2.48.42,3.48,1.43.48.48,1.01,1.23,1.35,4.14.64,5.52-.16,13.06-1.32,16.48-.23.66-.65,1.89-.28,3.34.2.75.53,1.26.75,1.6.05.08.1.14.14.13-.18.21-.86.52-1.58.59-.77.08-1.44-.21-1.86-.46-.17-.11-.37-.17-.57-.18-.02-.15-.04-.31-.07-.5-.18-1.6.06-3.32.73-5.11.23-.62-.09-1.32-.71-1.54-.63-.23-1.31.08-1.55.71-.8,2.15-1.09,4.24-.86,6.22.03.29.07.54.11.76.04.25.09.58.06.67-.3.49-2.3.64-4.42.09-1.09-.28-2.11-.77-3.06-1.45.99-1.7,1.49-3.75,1.09-5.9-.76-4.06-4.27-6-4.97-6.34-.6-.3-1.32-.05-1.61.54-.3.59-.05,1.32.54,1.61.52.26,3.13,1.69,3.68,4.63.55,2.95-1.28,5.68-3.38,6.85-3.84,2.15-8.74-.66-10.66-3.43-.6-.86-1.09-2.22-1.39-3.8-1.15-6.21.71-14.78,6.41-18.45,1.77-1.14,3.73-1.69,5.03-2.05,1.38-.38,2.68-.75,2.52-2.05-.17-1.34-1.58-1.33-2.96-1.32-1.58.01-3.9.02-5.33-1.05-2.56-1.92-2.66-7.79-.29-17,.07-.27.04-.56-.07-.81-.64-1.36-1.31-3.51-.93-6.05.44-2.93,1.4-4.85,2.62-5.25,1.76-.58,4.89,1.46,6.57,5.3.19.44.68.76,1.11.72l5.74-.04c.47,0,.9-.28,1.09-.71,1.63-3.68,4.33-5.64,5.82-5.35,2.07.4,3.37,4.08,3.85,7.1.17,1.09.2,2.21.08,3.33-.02.21.01.43.1.63,3.8,8.26,4.69,13.87,2.57,16.23Z" style="fill: #fff;"/>
  </g>
  <g id="occhi">
    <path d="M27.85,26.36c-.08,0-.16,0-.24,0-2.51-.16-4.38-2.8-4.19-5.87.09-1.43.62-2.76,1.48-3.74.92-1.06,2.17-1.62,3.44-1.54,1.26.08,2.43.8,3.21,1.97.72,1.09,1.07,2.47.98,3.9-.09,1.43-.62,2.76-1.48,3.74-.86.99-2.02,1.54-3.19,1.54ZM28.09,17.6c-.65,0-1.14.45-1.38.72-.51.58-.83,1.42-.89,2.32-.11,1.72.78,3.24,1.94,3.31.68.05,1.22-.43,1.47-.72.51-.58.83-1.42.89-2.32h0c.06-.89-.15-1.77-.58-2.41-.21-.32-.67-.86-1.36-.9-.03,0-.06,0-.09,0Z" style="fill: #fff;"/>
    <path d="M42.47,26.36c-1.18,0-2.33-.55-3.19-1.54-.86-.98-1.38-2.31-1.48-3.74h0c-.09-1.43.25-2.82.98-3.9.78-1.17,1.95-1.89,3.21-1.97,1.26-.07,2.51.48,3.43,1.54.86.98,1.38,2.31,1.48,3.74.2,3.07-1.68,5.71-4.19,5.87-.08,0-.16,0-.24,0ZM42.23,17.6s-.06,0-.09,0c-.69.04-1.15.58-1.36.9-.43.64-.64,1.52-.58,2.41h0c.06.9.38,1.74.89,2.32.25.29.7.79,1.47.72,1.16-.08,2.05-1.59,1.94-3.31-.06-.89-.38-1.74-.89-2.32-.24-.27-.73-.72-1.38-.72Z" style="fill: #fff;"/>
  </g>
</svg>